<mxfile host="Electron" modified="2025-04-03T04:06:37.979Z" agent="Mozilla/5.0 (Windows NT 10.0; Win64; x64) AppleWebKit/537.36 (KHTML, like Gecko) draw.io/21.5.0 Chrome/112.0.5615.204 Electron/24.5.1 Safari/537.36" etag="Fbgj29UZYhl6tZjienPK" version="21.5.0" type="device">
  <diagram name="第 1 页" id="nJRzv5rlB3VEnub_vDUY">
    <mxGraphModel dx="1418" dy="820" grid="1" gridSize="10" guides="1" tooltips="1" connect="1" arrows="1" fold="1" page="1" pageScale="1" pageWidth="827" pageHeight="1169" math="0" shadow="0">
      <root>
        <mxCell id="0" />
        <mxCell id="1" parent="0" />
        <mxCell id="L7PPIbatm0o-3SstzBcX-143" value="" style="shape=table;startSize=0;container=1;collapsible=0;childLayout=tableLayout;fontSize=16;" parent="1" vertex="1">
          <mxGeometry x="667" y="349" width="390" height="321" as="geometry" />
        </mxCell>
        <mxCell id="L7PPIbatm0o-3SstzBcX-144" value="" style="shape=tableRow;horizontal=0;startSize=0;swimlaneHead=0;swimlaneBody=0;strokeColor=inherit;top=0;left=0;bottom=0;right=0;collapsible=0;dropTarget=0;fillColor=none;points=[[0,0.5],[1,0.5]];portConstraint=eastwest;fontSize=16;" parent="L7PPIbatm0o-3SstzBcX-143" vertex="1">
          <mxGeometry width="390" height="47" as="geometry" />
        </mxCell>
        <mxCell id="L7PPIbatm0o-3SstzBcX-145" value="&lt;b&gt;元素&lt;/b&gt;" style="shape=partialRectangle;html=1;whiteSpace=wrap;connectable=0;strokeColor=inherit;overflow=hidden;fillColor=none;top=0;left=0;bottom=0;right=0;pointerEvents=1;fontSize=16;" parent="L7PPIbatm0o-3SstzBcX-144" vertex="1">
          <mxGeometry width="130" height="47" as="geometry">
            <mxRectangle width="130" height="47" as="alternateBounds" />
          </mxGeometry>
        </mxCell>
        <mxCell id="L7PPIbatm0o-3SstzBcX-146" value="&lt;b&gt;范围&lt;/b&gt;" style="shape=partialRectangle;html=1;whiteSpace=wrap;connectable=0;strokeColor=inherit;overflow=hidden;fillColor=none;top=0;left=0;bottom=0;right=0;pointerEvents=1;fontSize=16;" parent="L7PPIbatm0o-3SstzBcX-144" vertex="1">
          <mxGeometry x="130" width="150" height="47" as="geometry">
            <mxRectangle width="150" height="47" as="alternateBounds" />
          </mxGeometry>
        </mxCell>
        <mxCell id="L7PPIbatm0o-3SstzBcX-147" value="&lt;b&gt;含义&lt;/b&gt;" style="shape=partialRectangle;html=1;whiteSpace=wrap;connectable=0;strokeColor=inherit;overflow=hidden;fillColor=none;top=0;left=0;bottom=0;right=0;pointerEvents=1;fontSize=16;" parent="L7PPIbatm0o-3SstzBcX-144" vertex="1">
          <mxGeometry x="280" width="110" height="47" as="geometry">
            <mxRectangle width="110" height="47" as="alternateBounds" />
          </mxGeometry>
        </mxCell>
        <mxCell id="L7PPIbatm0o-3SstzBcX-172" value="" style="shape=tableRow;horizontal=0;startSize=0;swimlaneHead=0;swimlaneBody=0;strokeColor=inherit;top=0;left=0;bottom=0;right=0;collapsible=0;dropTarget=0;fillColor=none;points=[[0,0.5],[1,0.5]];portConstraint=eastwest;fontSize=16;" parent="L7PPIbatm0o-3SstzBcX-143" vertex="1">
          <mxGeometry y="47" width="390" height="37" as="geometry" />
        </mxCell>
        <mxCell id="L7PPIbatm0o-3SstzBcX-173" value="a0-a1" style="shape=partialRectangle;html=1;whiteSpace=wrap;connectable=0;strokeColor=#000000;overflow=hidden;fillColor=#f8cecc;top=0;left=0;bottom=0;right=0;pointerEvents=1;fontSize=16;fillStyle=solid;" parent="L7PPIbatm0o-3SstzBcX-172" vertex="1">
          <mxGeometry width="130" height="37" as="geometry">
            <mxRectangle width="130" height="37" as="alternateBounds" />
          </mxGeometry>
        </mxCell>
        <mxCell id="L7PPIbatm0o-3SstzBcX-174" value="0&amp;lt;= x &amp;lt; vstart" style="shape=partialRectangle;html=1;whiteSpace=wrap;connectable=0;strokeColor=inherit;overflow=hidden;fillColor=none;top=0;left=0;bottom=0;right=0;pointerEvents=1;fontSize=16;align=left;" parent="L7PPIbatm0o-3SstzBcX-172" vertex="1">
          <mxGeometry x="130" width="150" height="37" as="geometry">
            <mxRectangle width="150" height="37" as="alternateBounds" />
          </mxGeometry>
        </mxCell>
        <mxCell id="L7PPIbatm0o-3SstzBcX-175" value="Prestart 部分" style="shape=partialRectangle;html=1;whiteSpace=wrap;connectable=0;strokeColor=inherit;overflow=hidden;fillColor=none;top=0;left=0;bottom=0;right=0;pointerEvents=1;fontSize=16;align=left;" parent="L7PPIbatm0o-3SstzBcX-172" vertex="1">
          <mxGeometry x="280" width="110" height="37" as="geometry">
            <mxRectangle width="110" height="37" as="alternateBounds" />
          </mxGeometry>
        </mxCell>
        <mxCell id="L7PPIbatm0o-3SstzBcX-168" value="" style="shape=tableRow;horizontal=0;startSize=0;swimlaneHead=0;swimlaneBody=0;strokeColor=inherit;top=0;left=0;bottom=0;right=0;collapsible=0;dropTarget=0;fillColor=none;points=[[0,0.5],[1,0.5]];portConstraint=eastwest;fontSize=16;" parent="L7PPIbatm0o-3SstzBcX-143" vertex="1">
          <mxGeometry y="84" width="390" height="51" as="geometry" />
        </mxCell>
        <mxCell id="L7PPIbatm0o-3SstzBcX-169" value="a2-a28" style="shape=partialRectangle;html=1;whiteSpace=wrap;connectable=0;strokeColor=#000000;overflow=hidden;fillColor=#ffe6cc;top=0;left=0;bottom=0;right=0;pointerEvents=1;fontSize=16;" parent="L7PPIbatm0o-3SstzBcX-168" vertex="1">
          <mxGeometry width="130" height="51" as="geometry">
            <mxRectangle width="130" height="51" as="alternateBounds" />
          </mxGeometry>
        </mxCell>
        <mxCell id="L7PPIbatm0o-3SstzBcX-170" value="vtart&amp;lt;= x &amp;lt; vl" style="shape=partialRectangle;html=1;whiteSpace=wrap;connectable=0;strokeColor=inherit;overflow=hidden;fillColor=none;top=0;left=0;bottom=0;right=0;pointerEvents=1;fontSize=16;align=left;" parent="L7PPIbatm0o-3SstzBcX-168" vertex="1">
          <mxGeometry x="130" width="150" height="51" as="geometry">
            <mxRectangle width="150" height="51" as="alternateBounds" />
          </mxGeometry>
        </mxCell>
        <mxCell id="L7PPIbatm0o-3SstzBcX-171" value="Body 部分" style="shape=partialRectangle;html=1;whiteSpace=wrap;connectable=0;strokeColor=inherit;overflow=hidden;fillColor=none;top=0;left=0;bottom=0;right=0;pointerEvents=1;fontSize=16;align=left;" parent="L7PPIbatm0o-3SstzBcX-168" vertex="1">
          <mxGeometry x="280" width="110" height="51" as="geometry">
            <mxRectangle width="110" height="51" as="alternateBounds" />
          </mxGeometry>
        </mxCell>
        <mxCell id="L7PPIbatm0o-3SstzBcX-148" value="" style="shape=tableRow;horizontal=0;startSize=0;swimlaneHead=0;swimlaneBody=0;strokeColor=inherit;top=0;left=0;bottom=0;right=0;collapsible=0;dropTarget=0;fillColor=none;points=[[0,0.5],[1,0.5]];portConstraint=eastwest;fontSize=16;" parent="L7PPIbatm0o-3SstzBcX-143" vertex="1">
          <mxGeometry y="135" width="390" height="46" as="geometry" />
        </mxCell>
        <mxCell id="L7PPIbatm0o-3SstzBcX-149" value="a29-a31" style="shape=partialRectangle;html=1;whiteSpace=wrap;connectable=0;strokeColor=#000000;overflow=hidden;fillColor=#dae8fc;top=0;left=0;bottom=0;right=0;pointerEvents=1;fontSize=16;" parent="L7PPIbatm0o-3SstzBcX-148" vertex="1">
          <mxGeometry width="130" height="46" as="geometry">
            <mxRectangle width="130" height="46" as="alternateBounds" />
          </mxGeometry>
        </mxCell>
        <mxCell id="L7PPIbatm0o-3SstzBcX-150" value="vl&amp;lt;= x &amp;lt; vlmax" style="shape=partialRectangle;html=1;whiteSpace=wrap;connectable=0;strokeColor=inherit;overflow=hidden;fillColor=none;top=0;left=0;bottom=0;right=0;pointerEvents=1;fontSize=16;align=left;" parent="L7PPIbatm0o-3SstzBcX-148" vertex="1">
          <mxGeometry x="130" width="150" height="46" as="geometry">
            <mxRectangle width="150" height="46" as="alternateBounds" />
          </mxGeometry>
        </mxCell>
        <mxCell id="L7PPIbatm0o-3SstzBcX-151" value="Tail 部分" style="shape=partialRectangle;html=1;whiteSpace=wrap;connectable=0;strokeColor=inherit;overflow=hidden;fillColor=none;top=0;left=0;bottom=0;right=0;pointerEvents=1;fontSize=16;align=left;" parent="L7PPIbatm0o-3SstzBcX-148" vertex="1">
          <mxGeometry x="280" width="110" height="46" as="geometry">
            <mxRectangle width="110" height="46" as="alternateBounds" />
          </mxGeometry>
        </mxCell>
        <mxCell id="L7PPIbatm0o-3SstzBcX-152" value="" style="shape=tableRow;horizontal=0;startSize=0;swimlaneHead=0;swimlaneBody=0;strokeColor=inherit;top=0;left=0;bottom=0;right=0;collapsible=0;dropTarget=0;fillColor=none;points=[[0,0.5],[1,0.5]];portConstraint=eastwest;fontSize=16;" parent="L7PPIbatm0o-3SstzBcX-143" vertex="1">
          <mxGeometry y="181" width="390" height="47" as="geometry" />
        </mxCell>
        <mxCell id="L7PPIbatm0o-3SstzBcX-153" value="" style="shape=partialRectangle;html=1;whiteSpace=wrap;connectable=0;strokeColor=inherit;overflow=hidden;fillColor=none;top=0;left=0;bottom=0;right=0;pointerEvents=1;fontSize=16;" parent="L7PPIbatm0o-3SstzBcX-152" vertex="1">
          <mxGeometry width="130" height="47" as="geometry">
            <mxRectangle width="130" height="47" as="alternateBounds" />
          </mxGeometry>
        </mxCell>
        <mxCell id="L7PPIbatm0o-3SstzBcX-154" value="" style="shape=partialRectangle;html=1;whiteSpace=wrap;connectable=0;strokeColor=inherit;overflow=hidden;fillColor=none;top=0;left=0;bottom=0;right=0;pointerEvents=1;fontSize=16;" parent="L7PPIbatm0o-3SstzBcX-152" vertex="1">
          <mxGeometry x="130" width="150" height="47" as="geometry">
            <mxRectangle width="150" height="47" as="alternateBounds" />
          </mxGeometry>
        </mxCell>
        <mxCell id="L7PPIbatm0o-3SstzBcX-155" value="" style="shape=partialRectangle;html=1;whiteSpace=wrap;connectable=0;strokeColor=inherit;overflow=hidden;fillColor=none;top=0;left=0;bottom=0;right=0;pointerEvents=1;fontSize=16;" parent="L7PPIbatm0o-3SstzBcX-152" vertex="1">
          <mxGeometry x="280" width="110" height="47" as="geometry">
            <mxRectangle width="110" height="47" as="alternateBounds" />
          </mxGeometry>
        </mxCell>
        <mxCell id="L7PPIbatm0o-3SstzBcX-156" value="" style="shape=tableRow;horizontal=0;startSize=0;swimlaneHead=0;swimlaneBody=0;strokeColor=inherit;top=0;left=0;bottom=0;right=0;collapsible=0;dropTarget=0;fillColor=none;points=[[0,0.5],[1,0.5]];portConstraint=eastwest;fontSize=16;" parent="L7PPIbatm0o-3SstzBcX-143" vertex="1">
          <mxGeometry y="228" width="390" height="47" as="geometry" />
        </mxCell>
        <mxCell id="L7PPIbatm0o-3SstzBcX-157" value="a8与a10" style="shape=partialRectangle;html=1;whiteSpace=wrap;connectable=0;strokeColor=#000000;overflow=hidden;fillColor=#ffe6cc;top=0;left=0;bottom=0;right=0;pointerEvents=1;fontSize=16;" parent="L7PPIbatm0o-3SstzBcX-156" vertex="1">
          <mxGeometry width="130" height="47" as="geometry">
            <mxRectangle width="130" height="47" as="alternateBounds" />
          </mxGeometry>
        </mxCell>
        <mxCell id="L7PPIbatm0o-3SstzBcX-158" value="Body(x) &amp;amp;&amp;amp; !mask(x)" style="shape=partialRectangle;html=1;whiteSpace=wrap;connectable=0;strokeColor=inherit;overflow=hidden;fillColor=none;top=0;left=0;bottom=0;right=0;pointerEvents=1;fontSize=16;align=left;" parent="L7PPIbatm0o-3SstzBcX-156" vertex="1">
          <mxGeometry x="130" width="150" height="47" as="geometry">
            <mxRectangle width="150" height="47" as="alternateBounds" />
          </mxGeometry>
        </mxCell>
        <mxCell id="L7PPIbatm0o-3SstzBcX-159" value="Inactive 元素" style="shape=partialRectangle;html=1;whiteSpace=wrap;connectable=0;strokeColor=inherit;overflow=hidden;fillColor=none;top=0;left=0;bottom=0;right=0;pointerEvents=1;fontSize=16;align=left;" parent="L7PPIbatm0o-3SstzBcX-156" vertex="1">
          <mxGeometry x="280" width="110" height="47" as="geometry">
            <mxRectangle width="110" height="47" as="alternateBounds" />
          </mxGeometry>
        </mxCell>
        <mxCell id="L7PPIbatm0o-3SstzBcX-160" value="" style="shape=tableRow;horizontal=0;startSize=0;swimlaneHead=0;swimlaneBody=0;strokeColor=inherit;top=0;left=0;bottom=0;right=0;collapsible=0;dropTarget=0;fillColor=none;points=[[0,0.5],[1,0.5]];portConstraint=eastwest;fontSize=16;" parent="L7PPIbatm0o-3SstzBcX-143" vertex="1">
          <mxGeometry y="275" width="390" height="46" as="geometry" />
        </mxCell>
        <mxCell id="L7PPIbatm0o-3SstzBcX-161" value="a2-a28 除a8与a10" style="shape=partialRectangle;html=1;whiteSpace=wrap;connectable=0;strokeColor=#000000;overflow=hidden;fillColor=#d5e8d4;top=0;left=0;bottom=0;right=0;pointerEvents=1;fontSize=16;" parent="L7PPIbatm0o-3SstzBcX-160" vertex="1">
          <mxGeometry width="130" height="46" as="geometry">
            <mxRectangle width="130" height="46" as="alternateBounds" />
          </mxGeometry>
        </mxCell>
        <mxCell id="L7PPIbatm0o-3SstzBcX-162" value="Body(x) &amp;amp;&amp;amp; mask(x)" style="shape=partialRectangle;html=1;whiteSpace=wrap;connectable=0;strokeColor=inherit;overflow=hidden;fillColor=none;top=0;left=0;bottom=0;right=0;pointerEvents=1;fontSize=16;align=left;" parent="L7PPIbatm0o-3SstzBcX-160" vertex="1">
          <mxGeometry x="130" width="150" height="46" as="geometry">
            <mxRectangle width="150" height="46" as="alternateBounds" />
          </mxGeometry>
        </mxCell>
        <mxCell id="L7PPIbatm0o-3SstzBcX-163" value="Active 元素" style="shape=partialRectangle;html=1;whiteSpace=wrap;connectable=0;strokeColor=inherit;overflow=hidden;fillColor=none;top=0;left=0;bottom=0;right=0;pointerEvents=1;fontSize=16;align=left;" parent="L7PPIbatm0o-3SstzBcX-160" vertex="1">
          <mxGeometry x="280" width="110" height="46" as="geometry">
            <mxRectangle width="110" height="46" as="alternateBounds" />
          </mxGeometry>
        </mxCell>
        <mxCell id="L7PPIbatm0o-3SstzBcX-66" value="&lt;font style=&quot;font-size: 16px;&quot;&gt;a3&lt;/font&gt;" style="rounded=0;whiteSpace=wrap;html=1;fillColor=#ffe6cc;strokeColor=#d79b00;" parent="1" vertex="1">
          <mxGeometry x="159" y="220" width="80" height="30" as="geometry" />
        </mxCell>
        <mxCell id="L7PPIbatm0o-3SstzBcX-67" value="a2" style="rounded=0;whiteSpace=wrap;html=1;" parent="1" vertex="1">
          <mxGeometry x="239" y="220" width="80" height="30" as="geometry" />
        </mxCell>
        <mxCell id="L7PPIbatm0o-3SstzBcX-68" value="&lt;font style=&quot;font-size: 16px;&quot;&gt;a1&lt;/font&gt;" style="rounded=0;whiteSpace=wrap;html=1;fillColor=#FFB366;" parent="1" vertex="1">
          <mxGeometry x="319" y="220" width="80" height="30" as="geometry" />
        </mxCell>
        <mxCell id="L7PPIbatm0o-3SstzBcX-69" value="&lt;font style=&quot;font-size: 16px;&quot;&gt;a0&lt;/font&gt;" style="rounded=0;whiteSpace=wrap;html=1;fillColor=#f8cecc;strokeColor=#b85450;" parent="1" vertex="1">
          <mxGeometry x="399" y="220" width="80" height="30" as="geometry" />
        </mxCell>
        <mxCell id="L7PPIbatm0o-3SstzBcX-70" value="&lt;font style=&quot;font-size: 16px;&quot;&gt;a7&lt;/font&gt;" style="rounded=0;whiteSpace=wrap;html=1;fillColor=#ffe6cc;strokeColor=#d79b00;" parent="1" vertex="1">
          <mxGeometry x="159" y="280" width="80" height="30" as="geometry" />
        </mxCell>
        <mxCell id="L7PPIbatm0o-3SstzBcX-71" value="&lt;font style=&quot;font-size: 16px;&quot;&gt;a6&lt;/font&gt;" style="rounded=0;whiteSpace=wrap;html=1;fillColor=#ffe6cc;strokeColor=#d79b00;" parent="1" vertex="1">
          <mxGeometry x="239" y="280" width="80" height="30" as="geometry" />
        </mxCell>
        <mxCell id="L7PPIbatm0o-3SstzBcX-72" value="&lt;font style=&quot;font-size: 16px;&quot;&gt;a5&lt;/font&gt;" style="rounded=0;whiteSpace=wrap;html=1;fillColor=#ffe6cc;strokeColor=#d79b00;" parent="1" vertex="1">
          <mxGeometry x="319" y="280" width="80" height="30" as="geometry" />
        </mxCell>
        <mxCell id="L7PPIbatm0o-3SstzBcX-73" value="&lt;font style=&quot;font-size: 16px;&quot;&gt;a4&lt;/font&gt;" style="rounded=0;whiteSpace=wrap;html=1;fillColor=#ffe6cc;strokeColor=#d79b00;" parent="1" vertex="1">
          <mxGeometry x="399" y="280" width="80" height="30" as="geometry" />
        </mxCell>
        <mxCell id="L7PPIbatm0o-3SstzBcX-74" value="&lt;font style=&quot;font-size: 16px;&quot;&gt;a3&lt;/font&gt;" style="rounded=0;whiteSpace=wrap;html=1;" parent="1" vertex="1">
          <mxGeometry x="239" y="220" width="80" height="30" as="geometry" />
        </mxCell>
        <mxCell id="L7PPIbatm0o-3SstzBcX-75" value="&lt;font style=&quot;font-size: 16px;&quot;&gt;a2&lt;/font&gt;" style="rounded=0;whiteSpace=wrap;html=1;fillColor=#FFB366;" parent="1" vertex="1">
          <mxGeometry x="239" y="220" width="80" height="30" as="geometry" />
        </mxCell>
        <mxCell id="L7PPIbatm0o-3SstzBcX-76" value="" style="shape=curlyBracket;whiteSpace=wrap;html=1;rounded=1;labelPosition=left;verticalLabelPosition=middle;align=right;verticalAlign=middle;" parent="1" vertex="1">
          <mxGeometry x="119" y="230" width="20" height="430" as="geometry" />
        </mxCell>
        <mxCell id="L7PPIbatm0o-3SstzBcX-77" value="LMUL = 8&lt;br&gt;SEW = 32" style="text;strokeColor=none;align=left;fillColor=none;html=1;verticalAlign=middle;whiteSpace=wrap;rounded=0;" parent="1" vertex="1">
          <mxGeometry x="40" y="430" width="60" height="30" as="geometry" />
        </mxCell>
        <mxCell id="L7PPIbatm0o-3SstzBcX-79" value="" style="shape=curlyBracket;whiteSpace=wrap;html=1;rounded=1;labelPosition=left;verticalLabelPosition=middle;align=right;verticalAlign=middle;rotation=90;size=0.5;" parent="1" vertex="1">
          <mxGeometry x="309.49" y="-19.51" width="22.63" height="321.34" as="geometry" />
        </mxCell>
        <mxCell id="L7PPIbatm0o-3SstzBcX-80" value="&lt;font style=&quot;font-size: 16px;&quot;&gt;VLEN =&amp;nbsp; &lt;font style=&quot;font-size: 16px;&quot; color=&quot;#ff0000&quot;&gt;128 &lt;/font&gt;bits&lt;/font&gt;" style="text;strokeColor=none;align=center;fillColor=none;html=1;verticalAlign=middle;whiteSpace=wrap;rounded=0;" parent="1" vertex="1">
          <mxGeometry x="260.32" y="90" width="130" height="30" as="geometry" />
        </mxCell>
        <mxCell id="L7PPIbatm0o-3SstzBcX-81" value="&lt;font style=&quot;font-size: 16px;&quot;&gt;a2&lt;/font&gt;" style="rounded=0;whiteSpace=wrap;html=1;fillColor=#ffe6cc;strokeColor=#d79b00;" parent="1" vertex="1">
          <mxGeometry x="239" y="220" width="80" height="30" as="geometry" />
        </mxCell>
        <mxCell id="L7PPIbatm0o-3SstzBcX-82" value="&lt;font style=&quot;font-size: 16px;&quot;&gt;a1&lt;/font&gt;" style="rounded=0;whiteSpace=wrap;html=1;fillColor=#f8cecc;strokeColor=#b85450;" parent="1" vertex="1">
          <mxGeometry x="319" y="220" width="80" height="30" as="geometry" />
        </mxCell>
        <mxCell id="L7PPIbatm0o-3SstzBcX-85" value="&lt;font style=&quot;font-size: 16px;&quot;&gt;a11&lt;/font&gt;" style="rounded=0;whiteSpace=wrap;html=1;fillColor=#ffe6cc;strokeColor=#d79b00;" parent="1" vertex="1">
          <mxGeometry x="159" y="340" width="80" height="30" as="geometry" />
        </mxCell>
        <mxCell id="L7PPIbatm0o-3SstzBcX-86" value="&lt;span style=&quot;font-size: 16px;&quot;&gt;a10&lt;/span&gt;" style="rounded=0;whiteSpace=wrap;html=1;fillColor=#d5e8d4;strokeColor=#82b366;" parent="1" vertex="1">
          <mxGeometry x="239.5" y="340" width="80" height="30" as="geometry" />
        </mxCell>
        <mxCell id="L7PPIbatm0o-3SstzBcX-87" value="&lt;font style=&quot;font-size: 16px;&quot;&gt;a9&lt;/font&gt;" style="rounded=0;whiteSpace=wrap;html=1;fillColor=#ffe6cc;strokeColor=#d79b00;" parent="1" vertex="1">
          <mxGeometry x="319" y="340" width="80" height="30" as="geometry" />
        </mxCell>
        <mxCell id="L7PPIbatm0o-3SstzBcX-88" value="&lt;span style=&quot;font-size: 16px;&quot;&gt;a8&lt;/span&gt;" style="rounded=0;whiteSpace=wrap;html=1;fillColor=#d5e8d4;strokeColor=#82b366;" parent="1" vertex="1">
          <mxGeometry x="400" y="340" width="80" height="30" as="geometry" />
        </mxCell>
        <mxCell id="L7PPIbatm0o-3SstzBcX-90" value="&lt;font style=&quot;font-size: 16px;&quot;&gt;a15&lt;/font&gt;" style="rounded=0;whiteSpace=wrap;html=1;fillColor=#ffe6cc;strokeColor=#d79b00;" parent="1" vertex="1">
          <mxGeometry x="159" y="400" width="80" height="30" as="geometry" />
        </mxCell>
        <mxCell id="L7PPIbatm0o-3SstzBcX-91" value="&lt;font style=&quot;font-size: 16px;&quot;&gt;a14&lt;/font&gt;" style="rounded=0;whiteSpace=wrap;html=1;fillColor=#ffe6cc;strokeColor=#d79b00;" parent="1" vertex="1">
          <mxGeometry x="239" y="400" width="80" height="30" as="geometry" />
        </mxCell>
        <mxCell id="L7PPIbatm0o-3SstzBcX-92" value="&lt;font style=&quot;font-size: 16px;&quot;&gt;a13&lt;/font&gt;" style="rounded=0;whiteSpace=wrap;html=1;fillColor=#ffe6cc;strokeColor=#d79b00;" parent="1" vertex="1">
          <mxGeometry x="319" y="400" width="80" height="30" as="geometry" />
        </mxCell>
        <mxCell id="L7PPIbatm0o-3SstzBcX-93" value="&lt;font style=&quot;font-size: 16px;&quot;&gt;a12&lt;/font&gt;" style="rounded=0;whiteSpace=wrap;html=1;fillColor=#ffe6cc;strokeColor=#d79b00;" parent="1" vertex="1">
          <mxGeometry x="399" y="400" width="80" height="30" as="geometry" />
        </mxCell>
        <mxCell id="L7PPIbatm0o-3SstzBcX-95" value="&lt;font style=&quot;font-size: 16px;&quot;&gt;a19&lt;/font&gt;" style="rounded=0;whiteSpace=wrap;html=1;fillColor=#ffe6cc;strokeColor=#d79b00;" parent="1" vertex="1">
          <mxGeometry x="159" y="460" width="80" height="30" as="geometry" />
        </mxCell>
        <mxCell id="L7PPIbatm0o-3SstzBcX-96" value="&lt;font style=&quot;font-size: 16px;&quot;&gt;a18&lt;/font&gt;" style="rounded=0;whiteSpace=wrap;html=1;fillColor=#ffe6cc;strokeColor=#d79b00;" parent="1" vertex="1">
          <mxGeometry x="239" y="460" width="80" height="30" as="geometry" />
        </mxCell>
        <mxCell id="L7PPIbatm0o-3SstzBcX-97" value="&lt;font style=&quot;font-size: 16px;&quot;&gt;a17&lt;/font&gt;" style="rounded=0;whiteSpace=wrap;html=1;fillColor=#ffe6cc;strokeColor=#d79b00;" parent="1" vertex="1">
          <mxGeometry x="319" y="460" width="80" height="30" as="geometry" />
        </mxCell>
        <mxCell id="L7PPIbatm0o-3SstzBcX-98" value="&lt;font style=&quot;font-size: 16px;&quot;&gt;a16&lt;/font&gt;" style="rounded=0;whiteSpace=wrap;html=1;fillColor=#ffe6cc;strokeColor=#d79b00;" parent="1" vertex="1">
          <mxGeometry x="399" y="460" width="80" height="30" as="geometry" />
        </mxCell>
        <mxCell id="L7PPIbatm0o-3SstzBcX-100" value="&lt;font style=&quot;font-size: 16px;&quot;&gt;a23&lt;/font&gt;" style="rounded=0;whiteSpace=wrap;html=1;fillColor=#ffe6cc;strokeColor=#d79b00;" parent="1" vertex="1">
          <mxGeometry x="159" y="520" width="80" height="30" as="geometry" />
        </mxCell>
        <mxCell id="L7PPIbatm0o-3SstzBcX-101" value="&lt;font style=&quot;font-size: 16px;&quot;&gt;a22&lt;/font&gt;" style="rounded=0;whiteSpace=wrap;html=1;fillColor=#ffe6cc;strokeColor=#d79b00;" parent="1" vertex="1">
          <mxGeometry x="239" y="520" width="80" height="30" as="geometry" />
        </mxCell>
        <mxCell id="L7PPIbatm0o-3SstzBcX-102" value="&lt;font style=&quot;font-size: 16px;&quot;&gt;a21&lt;/font&gt;" style="rounded=0;whiteSpace=wrap;html=1;fillColor=#ffe6cc;strokeColor=#d79b00;" parent="1" vertex="1">
          <mxGeometry x="319" y="520" width="80" height="30" as="geometry" />
        </mxCell>
        <mxCell id="L7PPIbatm0o-3SstzBcX-103" value="&lt;span style=&quot;font-size: 16px;&quot;&gt;a20&lt;/span&gt;" style="rounded=0;whiteSpace=wrap;html=1;fillColor=#ffe6cc;strokeColor=#d79b00;" parent="1" vertex="1">
          <mxGeometry x="399" y="520" width="80" height="30" as="geometry" />
        </mxCell>
        <mxCell id="L7PPIbatm0o-3SstzBcX-105" value="&lt;font style=&quot;font-size: 16px;&quot;&gt;a27&lt;/font&gt;" style="rounded=0;whiteSpace=wrap;html=1;fillColor=#ffe6cc;strokeColor=#d79b00;" parent="1" vertex="1">
          <mxGeometry x="159" y="580" width="80" height="30" as="geometry" />
        </mxCell>
        <mxCell id="L7PPIbatm0o-3SstzBcX-106" value="&lt;font style=&quot;font-size: 16px;&quot;&gt;a26&lt;/font&gt;" style="rounded=0;whiteSpace=wrap;html=1;fillColor=#ffe6cc;strokeColor=#d79b00;" parent="1" vertex="1">
          <mxGeometry x="239" y="580" width="80" height="30" as="geometry" />
        </mxCell>
        <mxCell id="L7PPIbatm0o-3SstzBcX-107" value="&lt;font style=&quot;font-size: 16px;&quot;&gt;a25&lt;/font&gt;" style="rounded=0;whiteSpace=wrap;html=1;fillColor=#ffe6cc;strokeColor=#d79b00;" parent="1" vertex="1">
          <mxGeometry x="319" y="580" width="80" height="30" as="geometry" />
        </mxCell>
        <mxCell id="L7PPIbatm0o-3SstzBcX-108" value="&lt;span style=&quot;font-size: 16px;&quot;&gt;a24&lt;/span&gt;" style="rounded=0;whiteSpace=wrap;html=1;fillColor=#ffe6cc;strokeColor=#d79b00;" parent="1" vertex="1">
          <mxGeometry x="399" y="580" width="80" height="30" as="geometry" />
        </mxCell>
        <mxCell id="L7PPIbatm0o-3SstzBcX-110" value="&lt;font style=&quot;font-size: 16px;&quot;&gt;a31&lt;/font&gt;" style="rounded=0;whiteSpace=wrap;html=1;fillColor=#dae8fc;strokeColor=#6c8ebf;" parent="1" vertex="1">
          <mxGeometry x="159" y="640" width="80" height="30" as="geometry" />
        </mxCell>
        <mxCell id="L7PPIbatm0o-3SstzBcX-111" value="&lt;font style=&quot;font-size: 16px;&quot;&gt;a30&lt;/font&gt;" style="rounded=0;whiteSpace=wrap;html=1;fillColor=#dae8fc;strokeColor=#6c8ebf;" parent="1" vertex="1">
          <mxGeometry x="239" y="640" width="80" height="30" as="geometry" />
        </mxCell>
        <mxCell id="L7PPIbatm0o-3SstzBcX-112" value="&lt;font style=&quot;font-size: 16px;&quot;&gt;a29&lt;/font&gt;" style="rounded=0;whiteSpace=wrap;html=1;fillColor=#dae8fc;strokeColor=#6c8ebf;" parent="1" vertex="1">
          <mxGeometry x="319" y="640" width="80" height="30" as="geometry" />
        </mxCell>
        <mxCell id="L7PPIbatm0o-3SstzBcX-113" value="&lt;font style=&quot;font-size: 16px;&quot;&gt;a28&lt;/font&gt;" style="rounded=0;whiteSpace=wrap;html=1;fillColor=#ffe6cc;strokeColor=#d79b00;" parent="1" vertex="1">
          <mxGeometry x="399" y="640" width="80" height="30" as="geometry" />
        </mxCell>
        <mxCell id="L7PPIbatm0o-3SstzBcX-118" value="" style="shape=curlyBracket;whiteSpace=wrap;html=1;rounded=1;labelPosition=left;verticalLabelPosition=middle;align=right;verticalAlign=middle;direction=south;" parent="1" vertex="1">
          <mxGeometry x="319" y="190" width="161" height="20" as="geometry" />
        </mxCell>
        <mxCell id="L7PPIbatm0o-3SstzBcX-119" value="&lt;font style=&quot;font-size: 13px;&quot;&gt;Prestart 部分&lt;/font&gt;" style="text;strokeColor=none;align=center;fillColor=none;html=1;verticalAlign=middle;whiteSpace=wrap;rounded=0;" parent="1" vertex="1">
          <mxGeometry x="360" y="160" width="80" height="30" as="geometry" />
        </mxCell>
        <mxCell id="L7PPIbatm0o-3SstzBcX-120" value="" style="shape=curlyBracket;whiteSpace=wrap;html=1;rounded=1;labelPosition=left;verticalLabelPosition=middle;align=right;verticalAlign=middle;direction=north;" parent="1" vertex="1">
          <mxGeometry x="159" y="680" width="241" height="20" as="geometry" />
        </mxCell>
        <mxCell id="L7PPIbatm0o-3SstzBcX-122" value="&lt;font style=&quot;font-size: 13px;&quot;&gt;Tail 部分&lt;/font&gt;" style="text;strokeColor=none;align=center;fillColor=none;html=1;verticalAlign=middle;whiteSpace=wrap;rounded=0;" parent="1" vertex="1">
          <mxGeometry x="250" y="710" width="80" height="30" as="geometry" />
        </mxCell>
        <mxCell id="L7PPIbatm0o-3SstzBcX-331" value="" style="shape=flexArrow;endArrow=classic;html=1;rounded=0;" parent="1" edge="1">
          <mxGeometry width="50" height="50" relative="1" as="geometry">
            <mxPoint x="540" y="480" as="sourcePoint" />
            <mxPoint x="610" y="480" as="targetPoint" />
          </mxGeometry>
        </mxCell>
      </root>
    </mxGraphModel>
  </diagram>
</mxfile>
